<svg id="Layer_1" data-name="Layer 1" xmlns="http://www.w3.org/2000/svg" width="483.46" height="153.29" viewBox="0 0 483.46 153.29">
  <defs>
    <style>
      .cls-1 {
        fill: #d8d8d8;
        fill-opacity: 0;
      }

      .cls-2 {
        fill: #00dc5a;
      }
    </style>
  </defs>
  <title>iqiyi_logo_freelogovectors.net</title>
  <g id="画板">
    <g id="logo-顶导">
      <rect id="矩形" class="cls-1" width="483.46" height="153.29"/>
      <path id="形状" class="cls-2" d="M248.41,324a1.31,1.31,0,0,0,1.36,1.26H282a1.31,1.31,0,0,0,1.36-1.26V178.8a1.31,1.31,0,0,0-1.36-1.26H249.77a1.31,1.31,0,0,0-1.36,1.26ZM11.27,324a1.31,1.31,0,0,0,1.35,1.26H44.88A1.31,1.31,0,0,0,46.24,324V232.59a1.31,1.31,0,0,0-1.36-1.25H12.62a1.31,1.31,0,0,0-1.35,1.25ZM152.1,293.44c-23.37,4.25-45.89-11.79-50.2-35.74s11.19-46.89,34.56-51.14,45.89,11.79,50.2,35.74S175.47,289.19,152.1,293.44Zm75,6.87-16-12.87a1.76,1.76,0,0,1-.46-2.21,75.22,75.22,0,1,0-22.63,26,1.77,1.77,0,0,1,2.15,0l17.11,13.81a1.37,1.37,0,0,0,1.92-.24l18.05-22.59A1.39,1.39,0,0,0,227.13,300.31ZM490.37,177.54H458.12a1.31,1.31,0,0,0-1.36,1.26V324a1.31,1.31,0,0,0,1.36,1.26h32.25a1.31,1.31,0,0,0,1.36-1.26V178.8A1.31,1.31,0,0,0,490.37,177.54ZM28.75,174.65a20.58,20.58,0,1,0,20.49,20.58A20.53,20.53,0,0,0,28.75,174.65Zm410.94,2.89H405.32a1.62,1.62,0,0,0-1.42.79L372,235.39a.9.9,0,0,1-.43.41l-.11,0c-.24,0-.43-.24-.51-.36l0-.07h0l-31.94-57.06a1.61,1.61,0,0,0-1.41-.79H303.14a1.51,1.51,0,0,0-1.22,2.38L353,266.29a5.46,5.46,0,0,1,.75,2.75v54.72a1.5,1.5,0,0,0,1.49,1.51h32.33a1.51,1.51,0,0,0,1.5-1.51V269a5.45,5.45,0,0,1,.74-2.75l51.09-86.37A1.51,1.51,0,0,0,439.69,177.54Z" transform="translate(-8.27 -173.35)"/>
    </g>
  </g>
</svg>
